<mxfile host="app.diagrams.net" modified="2024-01-22T16:50:52.658Z" agent="Mozilla/5.0 (X11; Ubuntu; Linux x86_64; rv:107.0) Gecko/20100101 Firefox/107.0" etag="kLZKSvmB5tkOacwH28Og" version="22.1.21" type="device">
  <diagram id="R2lEEEUBdFMjLlhIrx00" name="Page-1">
    <mxGraphModel dx="1389" dy="820" grid="1" gridSize="10" guides="1" tooltips="1" connect="1" arrows="1" fold="1" page="1" pageScale="1" pageWidth="850" pageHeight="1100" math="0" shadow="0" extFonts="Permanent Marker^https://fonts.googleapis.com/css?family=Permanent+Marker">
      <root>
        <mxCell id="0" />
        <mxCell id="1" parent="0" />
        <mxCell id="C-vyLk0tnHw3VtMMgP7b-1" value="" style="edgeStyle=entityRelationEdgeStyle;endArrow=ERzeroToMany;startArrow=ERone;endFill=1;startFill=0;exitX=0;exitY=0.5;exitDx=0;exitDy=0;entryX=1;entryY=0.5;entryDx=0;entryDy=0;" parent="1" source="VWTEsgxcPlSKfRXbOGeT-9" target="C-vyLk0tnHw3VtMMgP7b-24" edge="1">
          <mxGeometry width="100" height="100" relative="1" as="geometry">
            <mxPoint x="340" y="720" as="sourcePoint" />
            <mxPoint x="450" y="195" as="targetPoint" />
          </mxGeometry>
        </mxCell>
        <mxCell id="C-vyLk0tnHw3VtMMgP7b-23" value="User_tl" style="shape=table;startSize=30;container=1;collapsible=1;childLayout=tableLayout;fixedRows=1;rowLines=0;fontStyle=1;align=center;resizeLast=1;" parent="1" vertex="1">
          <mxGeometry x="90" y="270" width="250" height="170" as="geometry" />
        </mxCell>
        <mxCell id="C-vyLk0tnHw3VtMMgP7b-24" value="" style="shape=partialRectangle;collapsible=0;dropTarget=0;pointerEvents=0;fillColor=none;points=[[0,0.5],[1,0.5]];portConstraint=eastwest;top=0;left=0;right=0;bottom=1;" parent="C-vyLk0tnHw3VtMMgP7b-23" vertex="1">
          <mxGeometry y="30" width="250" height="60" as="geometry" />
        </mxCell>
        <mxCell id="C-vyLk0tnHw3VtMMgP7b-25" value="PK&#xa;FK&#xa;" style="shape=partialRectangle;overflow=hidden;connectable=0;fillColor=none;top=0;left=0;bottom=0;right=0;fontStyle=1;" parent="C-vyLk0tnHw3VtMMgP7b-24" vertex="1">
          <mxGeometry width="30" height="60" as="geometry">
            <mxRectangle width="30" height="60" as="alternateBounds" />
          </mxGeometry>
        </mxCell>
        <mxCell id="C-vyLk0tnHw3VtMMgP7b-26" value="User_Id VARCHAR(50) NOT NULL&#xa;Branch_Id INT NOT NULL&#xa;" style="shape=partialRectangle;overflow=hidden;connectable=0;fillColor=none;top=0;left=0;bottom=0;right=0;align=left;spacingLeft=6;fontStyle=1;" parent="C-vyLk0tnHw3VtMMgP7b-24" vertex="1">
          <mxGeometry x="30" width="220" height="60" as="geometry">
            <mxRectangle width="220" height="60" as="alternateBounds" />
          </mxGeometry>
        </mxCell>
        <mxCell id="C-vyLk0tnHw3VtMMgP7b-27" value="" style="shape=partialRectangle;collapsible=0;dropTarget=0;pointerEvents=0;fillColor=none;points=[[0,0.5],[1,0.5]];portConstraint=eastwest;top=0;left=0;right=0;bottom=0;" parent="C-vyLk0tnHw3VtMMgP7b-23" vertex="1">
          <mxGeometry y="90" width="250" height="80" as="geometry" />
        </mxCell>
        <mxCell id="C-vyLk0tnHw3VtMMgP7b-28" value="" style="shape=partialRectangle;overflow=hidden;connectable=0;fillColor=none;top=0;left=0;bottom=0;right=0;" parent="C-vyLk0tnHw3VtMMgP7b-27" vertex="1">
          <mxGeometry width="30" height="80" as="geometry">
            <mxRectangle width="30" height="80" as="alternateBounds" />
          </mxGeometry>
        </mxCell>
        <mxCell id="C-vyLk0tnHw3VtMMgP7b-29" value="Status CHAR(1) NOT NULL&#xa;IP_Address VARCHAR(20)&#xa;Last_Sign_On TIMESTAMP&#xa;Password VARCHAR(100) NOT NULL&#xa;" style="shape=partialRectangle;overflow=hidden;connectable=0;fillColor=none;top=0;left=0;bottom=0;right=0;align=left;spacingLeft=6;" parent="C-vyLk0tnHw3VtMMgP7b-27" vertex="1">
          <mxGeometry x="30" width="220" height="80" as="geometry">
            <mxRectangle width="220" height="80" as="alternateBounds" />
          </mxGeometry>
        </mxCell>
        <mxCell id="VWTEsgxcPlSKfRXbOGeT-1" value="Customer_tl" style="shape=table;startSize=30;container=1;collapsible=1;childLayout=tableLayout;fixedRows=1;rowLines=0;fontStyle=1;align=center;resizeLast=1;" vertex="1" parent="1">
          <mxGeometry x="520" y="70" width="300" height="140" as="geometry" />
        </mxCell>
        <mxCell id="VWTEsgxcPlSKfRXbOGeT-2" value="" style="shape=partialRectangle;collapsible=0;dropTarget=0;pointerEvents=0;fillColor=none;points=[[0,0.5],[1,0.5]];portConstraint=eastwest;top=0;left=0;right=0;bottom=1;" vertex="1" parent="VWTEsgxcPlSKfRXbOGeT-1">
          <mxGeometry y="30" width="300" height="60" as="geometry" />
        </mxCell>
        <mxCell id="VWTEsgxcPlSKfRXbOGeT-3" value="PK&#xa;FK, PK&#xa;" style="shape=partialRectangle;overflow=hidden;connectable=0;fillColor=none;top=0;left=0;bottom=0;right=0;fontStyle=1;" vertex="1" parent="VWTEsgxcPlSKfRXbOGeT-2">
          <mxGeometry width="50" height="60" as="geometry">
            <mxRectangle width="50" height="60" as="alternateBounds" />
          </mxGeometry>
        </mxCell>
        <mxCell id="VWTEsgxcPlSKfRXbOGeT-4" value="Customer_Id INT NOT NULL&#xa;Branch_Id INT NOT NULL&#xa;" style="shape=partialRectangle;overflow=hidden;connectable=0;fillColor=none;top=0;left=0;bottom=0;right=0;align=left;spacingLeft=6;fontStyle=1;" vertex="1" parent="VWTEsgxcPlSKfRXbOGeT-2">
          <mxGeometry x="50" width="250" height="60" as="geometry">
            <mxRectangle width="250" height="60" as="alternateBounds" />
          </mxGeometry>
        </mxCell>
        <mxCell id="VWTEsgxcPlSKfRXbOGeT-5" value="" style="shape=partialRectangle;collapsible=0;dropTarget=0;pointerEvents=0;fillColor=none;points=[[0,0.5],[1,0.5]];portConstraint=eastwest;top=0;left=0;right=0;bottom=0;" vertex="1" parent="VWTEsgxcPlSKfRXbOGeT-1">
          <mxGeometry y="90" width="300" height="50" as="geometry" />
        </mxCell>
        <mxCell id="VWTEsgxcPlSKfRXbOGeT-6" value="" style="shape=partialRectangle;overflow=hidden;connectable=0;fillColor=none;top=0;left=0;bottom=0;right=0;" vertex="1" parent="VWTEsgxcPlSKfRXbOGeT-5">
          <mxGeometry width="50" height="50" as="geometry">
            <mxRectangle width="50" height="50" as="alternateBounds" />
          </mxGeometry>
        </mxCell>
        <mxCell id="VWTEsgxcPlSKfRXbOGeT-7" value="Customer_Name VARCHAR(100) NOT NULL&#xa;Customer_Cnic VARCHAR(15) NOT NULL&#xa;&#xa;" style="shape=partialRectangle;overflow=hidden;connectable=0;fillColor=none;top=0;left=0;bottom=0;right=0;align=left;spacingLeft=6;" vertex="1" parent="VWTEsgxcPlSKfRXbOGeT-5">
          <mxGeometry x="50" width="250" height="50" as="geometry">
            <mxRectangle width="250" height="50" as="alternateBounds" />
          </mxGeometry>
        </mxCell>
        <mxCell id="VWTEsgxcPlSKfRXbOGeT-8" value="Branch_tl" style="shape=table;startSize=30;container=1;collapsible=1;childLayout=tableLayout;fixedRows=1;rowLines=0;fontStyle=1;align=center;resizeLast=1;" vertex="1" parent="1">
          <mxGeometry x="520" y="270" width="300" height="120" as="geometry" />
        </mxCell>
        <mxCell id="VWTEsgxcPlSKfRXbOGeT-9" value="" style="shape=partialRectangle;collapsible=0;dropTarget=0;pointerEvents=0;fillColor=none;points=[[0,0.5],[1,0.5]];portConstraint=eastwest;top=0;left=0;right=0;bottom=1;" vertex="1" parent="VWTEsgxcPlSKfRXbOGeT-8">
          <mxGeometry y="30" width="300" height="60" as="geometry" />
        </mxCell>
        <mxCell id="VWTEsgxcPlSKfRXbOGeT-10" value="PK&#xa;FK&#xa;FK&#xa;" style="shape=partialRectangle;overflow=hidden;connectable=0;fillColor=none;top=0;left=0;bottom=0;right=0;fontStyle=1;" vertex="1" parent="VWTEsgxcPlSKfRXbOGeT-9">
          <mxGeometry width="50" height="60" as="geometry">
            <mxRectangle width="50" height="60" as="alternateBounds" />
          </mxGeometry>
        </mxCell>
        <mxCell id="VWTEsgxcPlSKfRXbOGeT-11" value="Branch_Code INT NOT NULL&#xa;City_Code INT NOT NULL&#xa;Country_Code INT NOT NULL&#xa;" style="shape=partialRectangle;overflow=hidden;connectable=0;fillColor=none;top=0;left=0;bottom=0;right=0;align=left;spacingLeft=6;fontStyle=1;" vertex="1" parent="VWTEsgxcPlSKfRXbOGeT-9">
          <mxGeometry x="50" width="250" height="60" as="geometry">
            <mxRectangle width="250" height="60" as="alternateBounds" />
          </mxGeometry>
        </mxCell>
        <mxCell id="VWTEsgxcPlSKfRXbOGeT-12" value="" style="shape=partialRectangle;collapsible=0;dropTarget=0;pointerEvents=0;fillColor=none;points=[[0,0.5],[1,0.5]];portConstraint=eastwest;top=0;left=0;right=0;bottom=0;" vertex="1" parent="VWTEsgxcPlSKfRXbOGeT-8">
          <mxGeometry y="90" width="300" height="30" as="geometry" />
        </mxCell>
        <mxCell id="VWTEsgxcPlSKfRXbOGeT-13" value="" style="shape=partialRectangle;overflow=hidden;connectable=0;fillColor=none;top=0;left=0;bottom=0;right=0;" vertex="1" parent="VWTEsgxcPlSKfRXbOGeT-12">
          <mxGeometry width="50" height="30" as="geometry">
            <mxRectangle width="50" height="30" as="alternateBounds" />
          </mxGeometry>
        </mxCell>
        <mxCell id="VWTEsgxcPlSKfRXbOGeT-14" value="Branch_Name VARCHAR(100) NOT NULL&#xa;&#xa;&#xa;" style="shape=partialRectangle;overflow=hidden;connectable=0;fillColor=none;top=0;left=0;bottom=0;right=0;align=left;spacingLeft=6;" vertex="1" parent="VWTEsgxcPlSKfRXbOGeT-12">
          <mxGeometry x="50" width="250" height="30" as="geometry">
            <mxRectangle width="250" height="30" as="alternateBounds" />
          </mxGeometry>
        </mxCell>
        <mxCell id="VWTEsgxcPlSKfRXbOGeT-15" value="City_tl" style="shape=table;startSize=30;container=1;collapsible=1;childLayout=tableLayout;fixedRows=1;rowLines=0;fontStyle=1;align=center;resizeLast=1;" vertex="1" parent="1">
          <mxGeometry x="370" y="420" width="220" height="90" as="geometry" />
        </mxCell>
        <mxCell id="VWTEsgxcPlSKfRXbOGeT-16" value="" style="shape=partialRectangle;collapsible=0;dropTarget=0;pointerEvents=0;fillColor=none;points=[[0,0.5],[1,0.5]];portConstraint=eastwest;top=0;left=0;right=0;bottom=1;" vertex="1" parent="VWTEsgxcPlSKfRXbOGeT-15">
          <mxGeometry y="30" width="220" height="30" as="geometry" />
        </mxCell>
        <mxCell id="VWTEsgxcPlSKfRXbOGeT-17" value="PK&#xa;&#xa;" style="shape=partialRectangle;overflow=hidden;connectable=0;fillColor=none;top=0;left=0;bottom=0;right=0;fontStyle=1;" vertex="1" parent="VWTEsgxcPlSKfRXbOGeT-16">
          <mxGeometry width="50" height="30" as="geometry">
            <mxRectangle width="50" height="30" as="alternateBounds" />
          </mxGeometry>
        </mxCell>
        <mxCell id="VWTEsgxcPlSKfRXbOGeT-18" value="City_Code INT NOT NULL&#xa;&#xa;" style="shape=partialRectangle;overflow=hidden;connectable=0;fillColor=none;top=0;left=0;bottom=0;right=0;align=left;spacingLeft=6;fontStyle=1;" vertex="1" parent="VWTEsgxcPlSKfRXbOGeT-16">
          <mxGeometry x="50" width="170" height="30" as="geometry">
            <mxRectangle width="170" height="30" as="alternateBounds" />
          </mxGeometry>
        </mxCell>
        <mxCell id="VWTEsgxcPlSKfRXbOGeT-19" value="" style="shape=partialRectangle;collapsible=0;dropTarget=0;pointerEvents=0;fillColor=none;points=[[0,0.5],[1,0.5]];portConstraint=eastwest;top=0;left=0;right=0;bottom=0;" vertex="1" parent="VWTEsgxcPlSKfRXbOGeT-15">
          <mxGeometry y="60" width="220" height="30" as="geometry" />
        </mxCell>
        <mxCell id="VWTEsgxcPlSKfRXbOGeT-20" value="" style="shape=partialRectangle;overflow=hidden;connectable=0;fillColor=none;top=0;left=0;bottom=0;right=0;" vertex="1" parent="VWTEsgxcPlSKfRXbOGeT-19">
          <mxGeometry width="50" height="30" as="geometry">
            <mxRectangle width="50" height="30" as="alternateBounds" />
          </mxGeometry>
        </mxCell>
        <mxCell id="VWTEsgxcPlSKfRXbOGeT-21" value="City_Name VARCHAR(100) &#xa;&#xa;" style="shape=partialRectangle;overflow=hidden;connectable=0;fillColor=none;top=0;left=0;bottom=0;right=0;align=left;spacingLeft=6;" vertex="1" parent="VWTEsgxcPlSKfRXbOGeT-19">
          <mxGeometry x="50" width="170" height="30" as="geometry">
            <mxRectangle width="170" height="30" as="alternateBounds" />
          </mxGeometry>
        </mxCell>
        <mxCell id="VWTEsgxcPlSKfRXbOGeT-25" value="Country_tl" style="shape=table;startSize=30;container=1;collapsible=1;childLayout=tableLayout;fixedRows=1;rowLines=0;fontStyle=1;align=center;resizeLast=1;" vertex="1" parent="1">
          <mxGeometry x="610" y="420" width="240" height="90" as="geometry" />
        </mxCell>
        <mxCell id="VWTEsgxcPlSKfRXbOGeT-26" value="" style="shape=partialRectangle;collapsible=0;dropTarget=0;pointerEvents=0;fillColor=none;points=[[0,0.5],[1,0.5]];portConstraint=eastwest;top=0;left=0;right=0;bottom=1;" vertex="1" parent="VWTEsgxcPlSKfRXbOGeT-25">
          <mxGeometry y="30" width="240" height="30" as="geometry" />
        </mxCell>
        <mxCell id="VWTEsgxcPlSKfRXbOGeT-27" value="PK&#xa;&#xa;" style="shape=partialRectangle;overflow=hidden;connectable=0;fillColor=none;top=0;left=0;bottom=0;right=0;fontStyle=1;" vertex="1" parent="VWTEsgxcPlSKfRXbOGeT-26">
          <mxGeometry width="50" height="30" as="geometry">
            <mxRectangle width="50" height="30" as="alternateBounds" />
          </mxGeometry>
        </mxCell>
        <mxCell id="VWTEsgxcPlSKfRXbOGeT-28" value="Country_Code INT NOT NULL&#xa;&#xa;" style="shape=partialRectangle;overflow=hidden;connectable=0;fillColor=none;top=0;left=0;bottom=0;right=0;align=left;spacingLeft=6;fontStyle=1;" vertex="1" parent="VWTEsgxcPlSKfRXbOGeT-26">
          <mxGeometry x="50" width="190" height="30" as="geometry">
            <mxRectangle width="190" height="30" as="alternateBounds" />
          </mxGeometry>
        </mxCell>
        <mxCell id="VWTEsgxcPlSKfRXbOGeT-29" value="" style="shape=partialRectangle;collapsible=0;dropTarget=0;pointerEvents=0;fillColor=none;points=[[0,0.5],[1,0.5]];portConstraint=eastwest;top=0;left=0;right=0;bottom=0;" vertex="1" parent="VWTEsgxcPlSKfRXbOGeT-25">
          <mxGeometry y="60" width="240" height="30" as="geometry" />
        </mxCell>
        <mxCell id="VWTEsgxcPlSKfRXbOGeT-30" value="" style="shape=partialRectangle;overflow=hidden;connectable=0;fillColor=none;top=0;left=0;bottom=0;right=0;" vertex="1" parent="VWTEsgxcPlSKfRXbOGeT-29">
          <mxGeometry width="50" height="30" as="geometry">
            <mxRectangle width="50" height="30" as="alternateBounds" />
          </mxGeometry>
        </mxCell>
        <mxCell id="VWTEsgxcPlSKfRXbOGeT-31" value="Country_Name VARCHAR(100) &#xa;&#xa;" style="shape=partialRectangle;overflow=hidden;connectable=0;fillColor=none;top=0;left=0;bottom=0;right=0;align=left;spacingLeft=6;" vertex="1" parent="VWTEsgxcPlSKfRXbOGeT-29">
          <mxGeometry x="50" width="190" height="30" as="geometry">
            <mxRectangle width="190" height="30" as="alternateBounds" />
          </mxGeometry>
        </mxCell>
        <mxCell id="VWTEsgxcPlSKfRXbOGeT-32" value="Account_tl" style="shape=table;startSize=30;container=1;collapsible=1;childLayout=tableLayout;fixedRows=1;rowLines=0;fontStyle=1;align=center;resizeLast=1;" vertex="1" parent="1">
          <mxGeometry x="100" y="30" width="290" height="200" as="geometry" />
        </mxCell>
        <mxCell id="VWTEsgxcPlSKfRXbOGeT-33" value="" style="shape=partialRectangle;collapsible=0;dropTarget=0;pointerEvents=0;fillColor=none;points=[[0,0.5],[1,0.5]];portConstraint=eastwest;top=0;left=0;right=0;bottom=1;" vertex="1" parent="VWTEsgxcPlSKfRXbOGeT-32">
          <mxGeometry y="30" width="290" height="100" as="geometry" />
        </mxCell>
        <mxCell id="VWTEsgxcPlSKfRXbOGeT-34" value="PK, FK&#xa;PK&#xa;PK, FK&#xa;PK&#xa;PK&#xa;PK&#xa;&#xa;" style="shape=partialRectangle;overflow=hidden;connectable=0;fillColor=none;top=0;left=0;bottom=0;right=0;fontStyle=1;" vertex="1" parent="VWTEsgxcPlSKfRXbOGeT-33">
          <mxGeometry width="50" height="100" as="geometry">
            <mxRectangle width="50" height="100" as="alternateBounds" />
          </mxGeometry>
        </mxCell>
        <mxCell id="VWTEsgxcPlSKfRXbOGeT-35" value="Branch_Code INT NOT NULL&#xa;Account_Type INT NOT NULL&#xa;Customer_No INT NOT NULL&#xa;Run_No INT NOT NULL&#xa;Check_Digit INT NOT NULL&#xa;Account_No VARCHAR(17)&#xa;&#xa;" style="shape=partialRectangle;overflow=hidden;connectable=0;fillColor=none;top=0;left=0;bottom=0;right=0;align=left;spacingLeft=6;fontStyle=1;" vertex="1" parent="VWTEsgxcPlSKfRXbOGeT-33">
          <mxGeometry x="50" width="240" height="100" as="geometry">
            <mxRectangle width="240" height="100" as="alternateBounds" />
          </mxGeometry>
        </mxCell>
        <mxCell id="VWTEsgxcPlSKfRXbOGeT-36" value="" style="shape=partialRectangle;collapsible=0;dropTarget=0;pointerEvents=0;fillColor=none;points=[[0,0.5],[1,0.5]];portConstraint=eastwest;top=0;left=0;right=0;bottom=0;" vertex="1" parent="VWTEsgxcPlSKfRXbOGeT-32">
          <mxGeometry y="130" width="290" height="70" as="geometry" />
        </mxCell>
        <mxCell id="VWTEsgxcPlSKfRXbOGeT-37" value="" style="shape=partialRectangle;overflow=hidden;connectable=0;fillColor=none;top=0;left=0;bottom=0;right=0;" vertex="1" parent="VWTEsgxcPlSKfRXbOGeT-36">
          <mxGeometry width="50" height="70" as="geometry">
            <mxRectangle width="50" height="70" as="alternateBounds" />
          </mxGeometry>
        </mxCell>
        <mxCell id="VWTEsgxcPlSKfRXbOGeT-38" value="Account_Title VARCHAR(100) NOT NULL&#xa;Category VARCHAR(100)&#xa;Account_Balance DOUBLE NOT NULL&#xa;" style="shape=partialRectangle;overflow=hidden;connectable=0;fillColor=none;top=0;left=0;bottom=0;right=0;align=left;spacingLeft=6;" vertex="1" parent="VWTEsgxcPlSKfRXbOGeT-36">
          <mxGeometry x="50" width="240" height="70" as="geometry">
            <mxRectangle width="240" height="70" as="alternateBounds" />
          </mxGeometry>
        </mxCell>
        <mxCell id="VWTEsgxcPlSKfRXbOGeT-45" value="Batch_tl" style="shape=table;startSize=30;container=1;collapsible=1;childLayout=tableLayout;fixedRows=1;rowLines=0;fontStyle=1;align=center;resizeLast=1;" vertex="1" parent="1">
          <mxGeometry x="490" y="540" width="320" height="110" as="geometry" />
        </mxCell>
        <mxCell id="VWTEsgxcPlSKfRXbOGeT-46" value="" style="shape=partialRectangle;collapsible=0;dropTarget=0;pointerEvents=0;fillColor=none;points=[[0,0.5],[1,0.5]];portConstraint=eastwest;top=0;left=0;right=0;bottom=1;" vertex="1" parent="VWTEsgxcPlSKfRXbOGeT-45">
          <mxGeometry y="30" width="320" height="40" as="geometry" />
        </mxCell>
        <mxCell id="VWTEsgxcPlSKfRXbOGeT-47" value="PK&#xa;FK&#xa;&#xa;" style="shape=partialRectangle;overflow=hidden;connectable=0;fillColor=none;top=0;left=0;bottom=0;right=0;fontStyle=1;" vertex="1" parent="VWTEsgxcPlSKfRXbOGeT-46">
          <mxGeometry width="50" height="40" as="geometry">
            <mxRectangle width="50" height="40" as="alternateBounds" />
          </mxGeometry>
        </mxCell>
        <mxCell id="VWTEsgxcPlSKfRXbOGeT-48" value="Batch_Id INT NOT NULL&#xa;User_Id VARCHAR(50) NOT NULL&#xa; &#xa;" style="shape=partialRectangle;overflow=hidden;connectable=0;fillColor=none;top=0;left=0;bottom=0;right=0;align=left;spacingLeft=6;fontStyle=1;" vertex="1" parent="VWTEsgxcPlSKfRXbOGeT-46">
          <mxGeometry x="50" width="270" height="40" as="geometry">
            <mxRectangle width="270" height="40" as="alternateBounds" />
          </mxGeometry>
        </mxCell>
        <mxCell id="VWTEsgxcPlSKfRXbOGeT-49" value="" style="shape=partialRectangle;collapsible=0;dropTarget=0;pointerEvents=0;fillColor=none;points=[[0,0.5],[1,0.5]];portConstraint=eastwest;top=0;left=0;right=0;bottom=0;" vertex="1" parent="VWTEsgxcPlSKfRXbOGeT-45">
          <mxGeometry y="70" width="320" height="40" as="geometry" />
        </mxCell>
        <mxCell id="VWTEsgxcPlSKfRXbOGeT-50" value="" style="shape=partialRectangle;overflow=hidden;connectable=0;fillColor=none;top=0;left=0;bottom=0;right=0;" vertex="1" parent="VWTEsgxcPlSKfRXbOGeT-49">
          <mxGeometry width="50" height="40" as="geometry">
            <mxRectangle width="50" height="40" as="alternateBounds" />
          </mxGeometry>
        </mxCell>
        <mxCell id="VWTEsgxcPlSKfRXbOGeT-51" value="Date_And_Time TIMESTAMP NOT NULL&#xa;Close_Date_And_Time TIMESTAMP NOT NULL&#xa;" style="shape=partialRectangle;overflow=hidden;connectable=0;fillColor=none;top=0;left=0;bottom=0;right=0;align=left;spacingLeft=6;" vertex="1" parent="VWTEsgxcPlSKfRXbOGeT-49">
          <mxGeometry x="50" width="270" height="40" as="geometry">
            <mxRectangle width="270" height="40" as="alternateBounds" />
          </mxGeometry>
        </mxCell>
        <mxCell id="VWTEsgxcPlSKfRXbOGeT-52" value="Condition_tl" style="shape=table;startSize=30;container=1;collapsible=1;childLayout=tableLayout;fixedRows=1;rowLines=0;fontStyle=1;align=center;resizeLast=1;" vertex="1" parent="1">
          <mxGeometry x="110" y="560" width="250" height="100" as="geometry" />
        </mxCell>
        <mxCell id="VWTEsgxcPlSKfRXbOGeT-53" value="" style="shape=partialRectangle;collapsible=0;dropTarget=0;pointerEvents=0;fillColor=none;points=[[0,0.5],[1,0.5]];portConstraint=eastwest;top=0;left=0;right=0;bottom=1;" vertex="1" parent="VWTEsgxcPlSKfRXbOGeT-52">
          <mxGeometry y="30" width="250" height="30" as="geometry" />
        </mxCell>
        <mxCell id="VWTEsgxcPlSKfRXbOGeT-54" value="PK&#xa;&#xa;" style="shape=partialRectangle;overflow=hidden;connectable=0;fillColor=none;top=0;left=0;bottom=0;right=0;fontStyle=1;" vertex="1" parent="VWTEsgxcPlSKfRXbOGeT-53">
          <mxGeometry width="50" height="30" as="geometry">
            <mxRectangle width="50" height="30" as="alternateBounds" />
          </mxGeometry>
        </mxCell>
        <mxCell id="VWTEsgxcPlSKfRXbOGeT-55" value="Condition_Code INT NOT NULL&#xa;&#xa;" style="shape=partialRectangle;overflow=hidden;connectable=0;fillColor=none;top=0;left=0;bottom=0;right=0;align=left;spacingLeft=6;fontStyle=1;" vertex="1" parent="VWTEsgxcPlSKfRXbOGeT-53">
          <mxGeometry x="50" width="200" height="30" as="geometry">
            <mxRectangle width="200" height="30" as="alternateBounds" />
          </mxGeometry>
        </mxCell>
        <mxCell id="VWTEsgxcPlSKfRXbOGeT-56" value="" style="shape=partialRectangle;collapsible=0;dropTarget=0;pointerEvents=0;fillColor=none;points=[[0,0.5],[1,0.5]];portConstraint=eastwest;top=0;left=0;right=0;bottom=0;" vertex="1" parent="VWTEsgxcPlSKfRXbOGeT-52">
          <mxGeometry y="60" width="250" height="40" as="geometry" />
        </mxCell>
        <mxCell id="VWTEsgxcPlSKfRXbOGeT-57" value="" style="shape=partialRectangle;overflow=hidden;connectable=0;fillColor=none;top=0;left=0;bottom=0;right=0;" vertex="1" parent="VWTEsgxcPlSKfRXbOGeT-56">
          <mxGeometry width="50" height="40" as="geometry">
            <mxRectangle width="50" height="40" as="alternateBounds" />
          </mxGeometry>
        </mxCell>
        <mxCell id="VWTEsgxcPlSKfRXbOGeT-58" value="Condition_Name VARCHAR(100)&#xa;Condition_Desc VARCHAR(100)&#xa; &#xa;&#xa;" style="shape=partialRectangle;overflow=hidden;connectable=0;fillColor=none;top=0;left=0;bottom=0;right=0;align=left;spacingLeft=6;" vertex="1" parent="VWTEsgxcPlSKfRXbOGeT-56">
          <mxGeometry x="50" width="200" height="40" as="geometry">
            <mxRectangle width="200" height="40" as="alternateBounds" />
          </mxGeometry>
        </mxCell>
        <mxCell id="VWTEsgxcPlSKfRXbOGeT-59" value="Acc_Cond_tl" style="shape=table;startSize=30;container=1;collapsible=1;childLayout=tableLayout;fixedRows=1;rowLines=0;fontStyle=1;align=center;resizeLast=1;" vertex="1" parent="1">
          <mxGeometry x="160" y="710" width="250" height="90" as="geometry" />
        </mxCell>
        <mxCell id="VWTEsgxcPlSKfRXbOGeT-60" value="" style="shape=partialRectangle;collapsible=0;dropTarget=0;pointerEvents=0;fillColor=none;points=[[0,0.5],[1,0.5]];portConstraint=eastwest;top=0;left=0;right=0;bottom=1;" vertex="1" parent="VWTEsgxcPlSKfRXbOGeT-59">
          <mxGeometry y="30" width="250" height="30" as="geometry" />
        </mxCell>
        <mxCell id="VWTEsgxcPlSKfRXbOGeT-61" value="PK, FK&#xa;PK, FK&#xa;&#xa;" style="shape=partialRectangle;overflow=hidden;connectable=0;fillColor=none;top=0;left=0;bottom=0;right=0;fontStyle=1;" vertex="1" parent="VWTEsgxcPlSKfRXbOGeT-60">
          <mxGeometry width="50" height="30" as="geometry">
            <mxRectangle width="50" height="30" as="alternateBounds" />
          </mxGeometry>
        </mxCell>
        <mxCell id="VWTEsgxcPlSKfRXbOGeT-62" value="Account_No INT NOT NULL&#xa;Condition_Code INT NOT NULL&#xa;&#xa;" style="shape=partialRectangle;overflow=hidden;connectable=0;fillColor=none;top=0;left=0;bottom=0;right=0;align=left;spacingLeft=6;fontStyle=1;" vertex="1" parent="VWTEsgxcPlSKfRXbOGeT-60">
          <mxGeometry x="50" width="200" height="30" as="geometry">
            <mxRectangle width="200" height="30" as="alternateBounds" />
          </mxGeometry>
        </mxCell>
        <mxCell id="VWTEsgxcPlSKfRXbOGeT-63" value="" style="shape=partialRectangle;collapsible=0;dropTarget=0;pointerEvents=0;fillColor=none;points=[[0,0.5],[1,0.5]];portConstraint=eastwest;top=0;left=0;right=0;bottom=0;" vertex="1" parent="VWTEsgxcPlSKfRXbOGeT-59">
          <mxGeometry y="60" width="250" height="30" as="geometry" />
        </mxCell>
        <mxCell id="VWTEsgxcPlSKfRXbOGeT-64" value="" style="shape=partialRectangle;overflow=hidden;connectable=0;fillColor=none;top=0;left=0;bottom=0;right=0;" vertex="1" parent="VWTEsgxcPlSKfRXbOGeT-63">
          <mxGeometry width="50" height="30" as="geometry">
            <mxRectangle width="50" height="30" as="alternateBounds" />
          </mxGeometry>
        </mxCell>
        <mxCell id="VWTEsgxcPlSKfRXbOGeT-65" value="Remarks VARCHAR(100) &#xa;&#xa;" style="shape=partialRectangle;overflow=hidden;connectable=0;fillColor=none;top=0;left=0;bottom=0;right=0;align=left;spacingLeft=6;" vertex="1" parent="VWTEsgxcPlSKfRXbOGeT-63">
          <mxGeometry x="50" width="200" height="30" as="geometry">
            <mxRectangle width="200" height="30" as="alternateBounds" />
          </mxGeometry>
        </mxCell>
        <mxCell id="VWTEsgxcPlSKfRXbOGeT-66" value="Acc_Cond_ht" style="shape=table;startSize=30;container=1;collapsible=1;childLayout=tableLayout;fixedRows=1;rowLines=0;fontStyle=1;align=center;resizeLast=1;" vertex="1" parent="1">
          <mxGeometry x="490" y="700" width="330" height="160" as="geometry" />
        </mxCell>
        <mxCell id="VWTEsgxcPlSKfRXbOGeT-67" value="" style="shape=partialRectangle;collapsible=0;dropTarget=0;pointerEvents=0;fillColor=none;points=[[0,0.5],[1,0.5]];portConstraint=eastwest;top=0;left=0;right=0;bottom=1;" vertex="1" parent="VWTEsgxcPlSKfRXbOGeT-66">
          <mxGeometry y="30" width="330" height="60" as="geometry" />
        </mxCell>
        <mxCell id="VWTEsgxcPlSKfRXbOGeT-68" value="PK, FK&#xa;PK, FK&#xa;FK&#xa;&#xa;" style="shape=partialRectangle;overflow=hidden;connectable=0;fillColor=none;top=0;left=0;bottom=0;right=0;fontStyle=1;" vertex="1" parent="VWTEsgxcPlSKfRXbOGeT-67">
          <mxGeometry width="50" height="60" as="geometry">
            <mxRectangle width="50" height="60" as="alternateBounds" />
          </mxGeometry>
        </mxCell>
        <mxCell id="VWTEsgxcPlSKfRXbOGeT-69" value="Account_No INT NOT NULL&#xa;Condition_Code INT NOT NULL&#xa;User_Id VARCHAR(50) NOT NULL&#xa;&#xa;" style="shape=partialRectangle;overflow=hidden;connectable=0;fillColor=none;top=0;left=0;bottom=0;right=0;align=left;spacingLeft=6;fontStyle=1;" vertex="1" parent="VWTEsgxcPlSKfRXbOGeT-67">
          <mxGeometry x="50" width="280" height="60" as="geometry">
            <mxRectangle width="280" height="60" as="alternateBounds" />
          </mxGeometry>
        </mxCell>
        <mxCell id="VWTEsgxcPlSKfRXbOGeT-70" value="" style="shape=partialRectangle;collapsible=0;dropTarget=0;pointerEvents=0;fillColor=none;points=[[0,0.5],[1,0.5]];portConstraint=eastwest;top=0;left=0;right=0;bottom=0;" vertex="1" parent="VWTEsgxcPlSKfRXbOGeT-66">
          <mxGeometry y="90" width="330" height="70" as="geometry" />
        </mxCell>
        <mxCell id="VWTEsgxcPlSKfRXbOGeT-71" value="" style="shape=partialRectangle;overflow=hidden;connectable=0;fillColor=none;top=0;left=0;bottom=0;right=0;" vertex="1" parent="VWTEsgxcPlSKfRXbOGeT-70">
          <mxGeometry width="50" height="70" as="geometry">
            <mxRectangle width="50" height="70" as="alternateBounds" />
          </mxGeometry>
        </mxCell>
        <mxCell id="VWTEsgxcPlSKfRXbOGeT-72" value="Remarks VARCHAR(100) &#xa;Date_And_Time TIMESTAMP NOT NULL&#xa;File VARCHAR(100)&#xa;Error_Log VARCHAR(100)&#xa; " style="shape=partialRectangle;overflow=hidden;connectable=0;fillColor=none;top=0;left=0;bottom=0;right=0;align=left;spacingLeft=6;" vertex="1" parent="VWTEsgxcPlSKfRXbOGeT-70">
          <mxGeometry x="50" width="280" height="70" as="geometry">
            <mxRectangle width="280" height="70" as="alternateBounds" />
          </mxGeometry>
        </mxCell>
        <mxCell id="VWTEsgxcPlSKfRXbOGeT-74" value="" style="endArrow=ERzeroToMany;startArrow=ERone;endFill=1;startFill=0;entryX=0.503;entryY=1;entryDx=0;entryDy=0;entryPerimeter=0;exitX=0.5;exitY=0;exitDx=0;exitDy=0;" edge="1" parent="1" source="VWTEsgxcPlSKfRXbOGeT-8" target="VWTEsgxcPlSKfRXbOGeT-5">
          <mxGeometry width="100" height="100" relative="1" as="geometry">
            <mxPoint x="692" y="267" as="sourcePoint" />
            <mxPoint x="330" y="180" as="targetPoint" />
          </mxGeometry>
        </mxCell>
        <mxCell id="VWTEsgxcPlSKfRXbOGeT-75" value="" style="endArrow=ERzeroToMany;startArrow=ERone;endFill=1;startFill=0;exitX=0.5;exitY=0;exitDx=0;exitDy=0;" edge="1" parent="1">
          <mxGeometry width="100" height="100" relative="1" as="geometry">
            <mxPoint x="539.5" y="420" as="sourcePoint" />
            <mxPoint x="540" y="390" as="targetPoint" />
          </mxGeometry>
        </mxCell>
        <mxCell id="VWTEsgxcPlSKfRXbOGeT-76" value="" style="endArrow=ERzeroToMany;startArrow=ERone;endFill=1;startFill=0;exitX=0.5;exitY=0;exitDx=0;exitDy=0;entryX=0.453;entryY=1.033;entryDx=0;entryDy=0;entryPerimeter=0;" edge="1" parent="1" target="VWTEsgxcPlSKfRXbOGeT-12">
          <mxGeometry width="100" height="100" relative="1" as="geometry">
            <mxPoint x="654.75" y="420" as="sourcePoint" />
            <mxPoint x="685.25" y="390" as="targetPoint" />
          </mxGeometry>
        </mxCell>
        <mxCell id="VWTEsgxcPlSKfRXbOGeT-77" value="" style="endArrow=ERzeroToMany;startArrow=ERone;endFill=1;startFill=0;exitX=-0.01;exitY=0.017;exitDx=0;exitDy=0;entryX=0.996;entryY=0.18;entryDx=0;entryDy=0;entryPerimeter=0;exitPerimeter=0;" edge="1" parent="1" source="VWTEsgxcPlSKfRXbOGeT-9" target="VWTEsgxcPlSKfRXbOGeT-33">
          <mxGeometry width="100" height="100" relative="1" as="geometry">
            <mxPoint x="530" y="340" as="sourcePoint" />
            <mxPoint x="330" y="180" as="targetPoint" />
            <Array as="points">
              <mxPoint x="430" y="300" />
              <mxPoint x="430" y="80" />
            </Array>
          </mxGeometry>
        </mxCell>
        <mxCell id="VWTEsgxcPlSKfRXbOGeT-78" value="" style="endArrow=ERzeroToMany;startArrow=ERone;endFill=1;startFill=0;exitX=0;exitY=0.5;exitDx=0;exitDy=0;" edge="1" parent="1" source="VWTEsgxcPlSKfRXbOGeT-2">
          <mxGeometry width="100" height="100" relative="1" as="geometry">
            <mxPoint x="470" y="140" as="sourcePoint" />
            <mxPoint x="390" y="130" as="targetPoint" />
          </mxGeometry>
        </mxCell>
        <mxCell id="VWTEsgxcPlSKfRXbOGeT-79" value="" style="endArrow=ERzeroToMany;startArrow=ERone;endFill=1;startFill=0;exitX=0.75;exitY=1;exitDx=0;exitDy=0;entryX=-0.009;entryY=0.1;entryDx=0;entryDy=0;entryPerimeter=0;" edge="1" parent="1" source="C-vyLk0tnHw3VtMMgP7b-23" target="VWTEsgxcPlSKfRXbOGeT-45">
          <mxGeometry width="100" height="100" relative="1" as="geometry">
            <mxPoint x="530" y="340" as="sourcePoint" />
            <mxPoint x="350" y="340" as="targetPoint" />
            <Array as="points">
              <mxPoint x="278" y="550" />
              <mxPoint x="340" y="550" />
            </Array>
          </mxGeometry>
        </mxCell>
        <mxCell id="VWTEsgxcPlSKfRXbOGeT-80" value="" style="endArrow=ERzeroToMany;startArrow=ERone;endFill=1;startFill=0;exitX=0;exitY=0.5;exitDx=0;exitDy=0;entryX=0;entryY=0.5;entryDx=0;entryDy=0;" edge="1" parent="1" source="VWTEsgxcPlSKfRXbOGeT-36" target="VWTEsgxcPlSKfRXbOGeT-60">
          <mxGeometry width="100" height="100" relative="1" as="geometry">
            <mxPoint x="540" y="350" as="sourcePoint" />
            <mxPoint x="30" y="520" as="targetPoint" />
            <Array as="points">
              <mxPoint x="20" y="195" />
              <mxPoint x="20" y="755" />
            </Array>
          </mxGeometry>
        </mxCell>
        <mxCell id="VWTEsgxcPlSKfRXbOGeT-81" value="" style="endArrow=ERzeroToMany;startArrow=ERone;endFill=1;startFill=0;exitX=0.5;exitY=1;exitDx=0;exitDy=0;entryX=0.296;entryY=0;entryDx=0;entryDy=0;entryPerimeter=0;" edge="1" parent="1" source="VWTEsgxcPlSKfRXbOGeT-52" target="VWTEsgxcPlSKfRXbOGeT-59">
          <mxGeometry width="100" height="100" relative="1" as="geometry">
            <mxPoint x="550" y="360" as="sourcePoint" />
            <mxPoint x="370" y="360" as="targetPoint" />
          </mxGeometry>
        </mxCell>
        <mxCell id="VWTEsgxcPlSKfRXbOGeT-82" value="" style="endArrow=ERzeroToMany;startArrow=ERone;endFill=1;startFill=0;exitX=1.007;exitY=0.733;exitDx=0;exitDy=0;entryX=0;entryY=0.5;entryDx=0;entryDy=0;exitPerimeter=0;" edge="1" parent="1" source="VWTEsgxcPlSKfRXbOGeT-56" target="VWTEsgxcPlSKfRXbOGeT-67">
          <mxGeometry width="100" height="100" relative="1" as="geometry">
            <mxPoint x="530" y="340" as="sourcePoint" />
            <mxPoint x="350" y="340" as="targetPoint" />
            <Array as="points">
              <mxPoint x="440" y="650" />
              <mxPoint x="440" y="760" />
            </Array>
          </mxGeometry>
        </mxCell>
        <mxCell id="VWTEsgxcPlSKfRXbOGeT-84" value="" style="endArrow=ERzeroToMany;startArrow=ERone;endFill=1;startFill=0;exitX=-0.001;exitY=-0.057;exitDx=0;exitDy=0;exitPerimeter=0;entryX=0;entryY=0.286;entryDx=0;entryDy=0;entryPerimeter=0;" edge="1" parent="1" source="VWTEsgxcPlSKfRXbOGeT-36" target="VWTEsgxcPlSKfRXbOGeT-70">
          <mxGeometry width="100" height="100" relative="1" as="geometry">
            <mxPoint x="110" y="260" as="sourcePoint" />
            <mxPoint x="570" y="930" as="targetPoint" />
            <Array as="points">
              <mxPoint x="40" y="156" />
              <mxPoint x="40" y="260" />
              <mxPoint x="40" y="810" />
            </Array>
          </mxGeometry>
        </mxCell>
        <mxCell id="VWTEsgxcPlSKfRXbOGeT-85" value="" style="endArrow=ERzeroToMany;startArrow=ERone;endFill=1;startFill=0;exitX=0.004;exitY=0.857;exitDx=0;exitDy=0;exitPerimeter=0;entryX=-0.003;entryY=0.743;entryDx=0;entryDy=0;entryPerimeter=0;" edge="1" parent="1" source="VWTEsgxcPlSKfRXbOGeT-36" target="VWTEsgxcPlSKfRXbOGeT-70">
          <mxGeometry width="100" height="100" relative="1" as="geometry">
            <mxPoint x="114" y="190" as="sourcePoint" />
            <mxPoint x="590" y="927" as="targetPoint" />
            <Array as="points">
              <mxPoint x="64" y="220" />
              <mxPoint x="64" y="294" />
              <mxPoint x="64" y="842" />
              <mxPoint x="380" y="842" />
            </Array>
          </mxGeometry>
        </mxCell>
      </root>
    </mxGraphModel>
  </diagram>
</mxfile>
